<?xml version="1.0" encoding="UTF-8" standalone="no"?>
<svg width="429px" height="429px" viewBox="0 0 429 429" version="1.1" xmlns="http://www.w3.org/2000/svg" xmlns:xlink="http://www.w3.org/1999/xlink" xmlns:sketch="http://www.bohemiancoding.com/sketch/ns">
    <title>monty-logo@2x</title>
    <description>Created with Sketch (http://www.bohemiancoding.com/sketch)</description>
    <defs>
        <path d="M305.521163,408.786471 C277.890333,421.75362 247.041408,429 214.5,429 C174.895482,429 137.797889,418.266586 105.957449,399.549987 C104.065003,395.658461 103.331603,391.014806 103.754183,385.616469 C104.494508,376.162311 106.96014,362.948124 111.128917,345.958097 L142.746073,213.465768 C148.994552,252.219058 157.827059,282.353738 169.208709,303.808885 C180.773443,325.448711 193.281026,335.597102 206.59452,334.122255 C223.580702,332.246384 243.459537,313.025163 265.90047,276.200903 C287.899866,239.040876 310.049095,197.952525 323.805308,146.549151 L302.432455,316.601856 C300.370815,336.510403 299.211817,353.285641 298.970446,366.938443 C298.615824,387.001272 300.799382,400.951084 305.521163,408.786471 Z M341.683263,387.244595 C394.644775,348.186453 429,285.355275 429,214.5 C429,96.0349153 332.965085,0 214.5,0 C96.0349153,0 0,96.0349153 0,214.5 C0,278.143559 27.7177096,335.313297 71.7401741,374.596258 C74.3344014,364.541145 77.7896848,352.544694 82.0971164,338.600558 L132.526164,166.540538 L127.758148,143.052044 C122.420359,117.016711 116.548267,101.795758 110.059512,97.2850121 C120.753507,87.2966102 129.978076,81.463195 137.774083,79.8223204 C143.568413,78.6065571 148.141526,83.2240625 151.517489,93.7013649 C154.92536,104.216795 160.704612,131.722036 169.091817,176.502604 C170.809299,185.53434 172.276419,192.652833 173.486799,197.850721 L175.86794,207.351004 C189.478746,264.000875 202.920054,291.785521 215.720659,290.205419 C229.654062,288.491734 249.870119,261.731595 275.818306,209.495291 C301.031647,156.69011 314.616513,113.959543 317.093701,81.7107908 C328.98054,74.4648114 337.728542,70.3249869 343.366735,69.3093913 C353.792072,67.4388603 359.003108,74.0502856 358.999999,89.1367154 C358.998962,94.1655304 357.756719,108.339122 355.246813,131.63627 C352.815376,152.796274 351.078663,169.714294 350.053907,182.404714 L337.776351,320.0133 C336.909219,329.692785 336.443441,339.049469 336.382388,348.086135 C336.265582,365.376025 338.030267,378.427313 341.683263,387.244595 Z M341.683263,387.244595" id="path-1"></path>
    </defs>
    <g id="Page-1" stroke="none" stroke-width="1" fill="none" fill-rule="evenodd" sketch:type="MSPage">
        <g id="Oval-1">
            <use fill="#3593CE" fill-rule="evenodd" sketch:type="MSShapeGroup" xlink:href="#path-1"></use>
            <use fill="none" xlink:href="#path-1"></use>
            <use fill="none" xlink:href="#path-1"></use>
        </g>
    </g>
</svg>